<svg width="35" height="36" viewBox="0 0 35 36" fill="none" xmlns="http://www.w3.org/2000/svg">
<path d="M29.7373 8.91337L17.5 17.6986L5.26275 8.91337M3.81894 6.00526C3.40497 6.00526 3.00795 6.16567 2.71523 6.45121C2.42251 6.73675 2.25806 7.12402 2.25806 7.52783V24.7405C2.25806 25.1443 2.42251 25.5316 2.71523 25.8171C3.00795 26.1026 3.40497 26.263 3.81894 26.263H31.1811C31.595 26.263 31.992 26.1026 32.2848 25.8171C32.5775 25.5316 32.7419 25.1443 32.7419 24.7405V7.50499C32.7419 7.10118 32.5775 6.71391 32.2848 6.42837C31.992 6.14283 31.595 5.98242 31.1811 5.98242H3.81894V6.00526Z" stroke="#818181" stroke-width="2" stroke-linecap="round" stroke-linejoin="round"/>
</svg>
