<svg width="31" height="31" viewBox="0 0 31 31" fill="none" xmlns="http://www.w3.org/2000/svg">
<g clip-path="url(#clip0_11_216)">
<path d="M23.8786 30.4542C23.589 30.4534 23.3003 30.4217 23.0175 30.3597C17.6327 29.2481 12.6718 26.6417 8.70583 22.8406C4.82452 19.0311 2.13262 14.1809 0.955833 8.87664C0.817075 8.21557 0.851132 7.52999 1.05473 6.88586C1.25832 6.24173 1.6246 5.66073 2.11833 5.19874L5.56278 1.89036C5.73871 1.72433 5.94775 1.59718 6.17625 1.51723C6.40475 1.43727 6.64758 1.40629 6.88889 1.42633C7.1391 1.45237 7.38055 1.53281 7.59627 1.66197C7.81198 1.79113 7.99672 1.96588 8.1375 2.17393L12.4431 8.52432C12.6045 8.77072 12.6825 9.06234 12.6654 9.35625C12.6484 9.65017 12.5372 9.93086 12.3483 10.157L10.1869 12.735C11.0478 14.6362 12.2668 16.3545 13.7778 17.7964C15.279 19.2906 17.0533 20.4837 19.0047 21.311L21.6828 19.1885C21.9077 19.0111 22.1814 18.9062 22.4675 18.8878C22.7536 18.8694 23.0385 18.9383 23.2845 19.0854L29.7858 23.2789C30.0089 23.4118 30.199 23.5934 30.3418 23.81C30.4846 24.0267 30.5764 24.2728 30.6104 24.5298C30.6444 24.7869 30.6196 25.0484 30.5379 25.2945C30.4563 25.5407 30.3199 25.7652 30.1389 25.9513L26.7806 29.2683C26.3991 29.6471 25.9463 29.9469 25.4483 30.1504C24.9502 30.354 24.4168 30.4572 23.8786 30.4542ZM6.75111 3.12778L3.30667 6.43617C3.02892 6.69443 2.82331 7.0204 2.71008 7.38201C2.59684 7.74361 2.57987 8.1284 2.66083 8.49854C3.75507 13.4758 6.27037 18.0304 9.90278 21.6118C13.635 25.1879 18.3034 27.6394 23.3706 28.684C23.7541 28.764 24.1515 28.7478 24.5273 28.6368C24.903 28.5258 25.2452 28.3235 25.5233 28.0481L28.8817 24.7311L22.6042 20.6837L19.7281 22.9695C19.618 23.0565 19.4882 23.1152 19.3501 23.1407C19.212 23.1662 19.0698 23.1575 18.9358 23.1156C16.5477 22.2375 14.3835 20.8437 12.5981 19.0338C10.7513 17.3128 9.31776 15.1978 8.40445 12.8467C8.36581 12.7044 8.36452 12.5545 8.40072 12.4115C8.43691 12.2686 8.50937 12.1373 8.61111 12.0303L10.9361 9.25474L6.75111 3.12778Z" fill="#818181"/>
</g>
<defs>
<clipPath id="clip0_11_216">
<rect width="31" height="30.9355" fill="white"/>
</clipPath>
</defs>
</svg>
