<svg width="106" height="106" viewBox="0 0 106 106" fill="none" xmlns="http://www.w3.org/2000/svg">
<path d="M20.8979 35.1325C22.1506 33.3608 24.5218 32.6191 26.1246 32.7588C27.7275 32.8984 28.5589 33.7779 29.3304 35.1325C30.0514 36.3985 29.8182 38.8327 29.8182 38.8327C29.8182 38.8327 28.1286 35.7345 26.264 35.4118C25.0737 35.2057 24.5028 35.2811 23.6855 35.9005C22.7099 36.6397 22.7422 37.612 22.8492 38.8327C22.9816 40.3429 24.1102 41.0946 25.2187 42.3235C26.2561 43.4735 28.2153 44.9066 28.2153 44.9066C28.2153 44.9066 27.7972 48.0182 27.7972 49.6541C27.7972 51.5625 28.076 54.1921 28.076 54.1921C28.076 54.1921 30.9827 62.0813 30.5848 70.7384C30.33 76.2833 28.5638 82.3976 27.7972 84.143C27.104 85.7211 25.2081 86.2868 23.6855 85.8184C22.088 85.3271 21.2994 84.0009 21.2463 82.3277C21.2021 80.9314 23.2382 77.0117 23.6855 70.7384C24.1036 64.8739 21.9432 57.9621 21.9432 57.9621C21.9432 57.9621 20.201 57.7526 19.0163 56.0072C17.9263 54.4016 17.8186 50.8044 17.6921 48.3973C17.3987 42.8121 19.7132 36.8081 20.8979 35.1325Z" fill="black"/>
<path d="M37.6889 26.0289C37.6889 29.4764 34.8941 32.2711 31.4466 32.2711C27.9992 32.2711 25.2044 29.4764 25.2044 26.0289C25.2044 22.5814 27.9992 19.7867 31.4466 19.7867C34.8941 19.7867 37.6889 22.5814 37.6889 26.0289Z" fill="black"/>
<path d="M46.1689 61.1267C46.1689 64.5741 43.3741 67.3689 39.9267 67.3689C36.4792 67.3689 33.6844 64.5741 33.6844 61.1267C33.6844 57.6792 36.4792 54.8845 39.9267 54.8845C43.3741 54.8845 46.1689 57.6792 46.1689 61.1267Z" fill="black"/>
<path fill-rule="evenodd" clip-rule="evenodd" d="M50.6523 54.6489C50.6523 60.1581 50.6947 60.9378 50.6947 61.8433C50.6947 62.7489 51.4477 63.8355 53.0282 63.8355C54.6086 63.8355 54.9761 62.656 54.9845 62.2055C55.0153 60.5732 55.0816 54.7954 55.0816 54.7954L55.12 47.1111L54.6626 47.2145C54.0845 47.3451 51.8595 47.3489 51.168 47.2205L50.6445 47.1232L50.6523 54.6489Z" fill="black"/>
<path d="M55.593 59.871C55.6505 63.088 55.2614 64.4186 52.9891 64.4184C50.3316 64.4182 50.1048 63.2941 50.0927 60.1906C50.0834 57.8093 50.061 57.7858 48.8984 58.9439C46.7572 61.077 47.684 64.5206 48.5057 65.612C49.3273 66.7034 50.2403 66.9762 51.0159 67.0686C51.7915 67.161 57.8193 67.1281 66.006 67.1223L80.8906 67.1115L81.0637 74.7531C81.2596 83.4113 81.2748 83.5324 82.2806 84.5439C83.8127 86.0844 85.9357 86.1459 87.3949 84.692C88.4528 83.6381 88.4202 84.1025 88.229 72.8705C88.229 62.9745 87.6933 61.8832 87.1019 61.2209C86.3927 60.4269 85.4798 60.042 78.9902 60.042L72.4064 60C72.4064 60 69.6859 57.694 66.2167 56.6082C62.7475 55.5225 58.3998 55.8847 58.3998 55.8847L55.713 56.341L55.593 59.871Z" fill="black"/>
<path d="M31.8692 46.0955C27.7666 44.5772 23.5348 39.9763 23.3782 38.7246C23.2391 37.612 23.2968 36.8398 24.1438 36.2213C25.0938 35.5277 26.3046 35.7378 27.1365 36.569C27.8325 37.2644 28.6071 39.9915 33.0524 41.6451C39.5946 44.0789 44.6055 42.6185 44.6055 42.6185C44.6055 42.6185 45.176 43.6016 45.6496 44.1483C46.1532 44.73 47.1111 45.4696 47.1111 45.4696C47.1111 45.4696 46.5965 46.4423 45.9975 46.6517C44.6055 47.1385 37.5066 48.1815 31.8692 46.0955Z" fill="black"/>
<path d="M33.4489 69.2534H78.44V73.0222H33.4489V69.2534Z" fill="black"/>
<path fill-rule="evenodd" clip-rule="evenodd" d="M61.7156 37.5711C61.7156 42.4497 57.7608 46.4045 52.8822 46.4045C48.0037 46.4045 44.0489 42.4497 44.0489 37.5711C44.0489 32.6926 48.0037 28.7378 52.8822 28.7378C57.7608 28.7378 61.7156 32.6926 61.7156 37.5711ZM52.7912 41.4869C54.9035 41.4869 56.6159 39.7745 56.6159 37.6622C56.6159 35.5498 54.9035 33.8374 52.7912 33.8374C50.6788 33.8374 48.9664 35.5498 48.9664 37.6622C48.9664 39.7745 50.6788 41.4869 52.7912 41.4869Z" fill="black"/>
<path d="M55.5911 37.6889C55.5911 39.25 54.3255 40.5156 52.7644 40.5156C51.2034 40.5156 49.9378 39.25 49.9378 37.6889C49.9378 36.1278 51.2034 34.8622 52.7644 34.8622C54.3255 34.8622 55.5911 36.1278 55.5911 37.6889Z" fill="black"/>
<path fill-rule="evenodd" clip-rule="evenodd" d="M53 102.467C80.3197 102.467 102.467 80.3197 102.467 53C102.467 25.6803 80.3197 3.53333 53 3.53333C25.6803 3.53333 3.53333 25.6803 3.53333 53C3.53333 80.3197 25.6803 102.467 53 102.467ZM53 106C82.2711 106 106 82.2711 106 53C106 23.7289 82.2711 0 53 0C23.7289 0 0 23.7289 0 53C0 82.2711 23.7289 106 53 106Z" fill="black"/>
</svg>
