<svg width="106" height="106" fill="none" xmlns="http://www.w3.org/2000/svg"><path d="M44.1848 40.9448C42.598 41.921 48.4342 56.0039 49.8577 58.2972C50.4569 59.2568 51.4115 59.9403 52.5131 60.1983C53.6146 60.4563 54.7735 60.2678 55.7365 59.6739C56.6995 59.0801 57.3883 58.1292 57.6523 57.0291C57.9164 55.929 57.7343 54.7691 57.1459 53.8029C55.7365 51.5025 45.7681 39.965 44.1848 40.9448V40.9448ZM42.9956 25.5271C49.7974 23.1533 57.2027 23.1533 64.0045 25.5271C65.1724 25.9318 66.7202 25.1189 66.0351 23.3581C65.5345 22.0801 65.0517 20.8305 64.8565 20.3228C64.3914 19.1194 62.7265 18.1254 62.0023 17.9621C59.2617 17.3444 56.4217 17 53.5 17C50.5784 17 47.7384 17.3444 44.9942 17.9621C44.27 18.1254 42.6086 19.1194 42.1436 20.3228L40.965 23.3581C40.2798 25.1189 41.8276 25.9354 42.9956 25.5271ZM85.7979 28.3103C84.4193 26.6565 82.8949 25.1297 81.2433 23.7486C80.7001 23.2906 79.1026 22.9179 78.0909 23.9296L72.2405 29.7765C73.6979 30.8065 75.0692 31.9534 76.3407 33.2058C77.6258 34.4873 78.7441 35.8754 79.77 37.306L85.6169 31.4592C86.6322 30.4439 86.2594 28.8499 85.7979 28.3103V28.3103ZM53.5 27.295C49.7235 27.2945 45.984 28.038 42.4949 29.4828C39.0057 30.9277 35.8354 33.0457 33.1649 35.7159C30.4943 38.3861 28.3759 41.5562 26.9306 45.0451C25.4853 48.5341 24.7415 52.2735 24.7415 56.05C24.741 59.8268 25.4845 63.5666 26.9296 67.056C28.3747 70.5453 30.493 73.7158 33.1636 76.3864C35.8342 79.057 39.0047 81.1753 42.494 82.6204C45.9834 84.0655 49.7232 84.809 53.5 84.8086C61.1268 84.8086 68.4412 81.7788 73.8341 76.3859C79.2271 70.993 82.2568 63.6786 82.2568 56.0518C82.2568 48.425 79.2271 41.1106 73.8341 35.7177C68.4412 30.3247 61.1268 27.295 53.5 27.295V27.295ZM53.5 77.7086C50.656 77.7083 47.8399 77.1479 45.2125 76.0594C42.585 74.9708 40.1977 73.3754 38.1869 71.3642C36.176 69.353 34.581 66.9654 33.4929 64.3378C32.4047 61.7102 31.8448 58.894 31.845 56.05C31.8452 53.206 32.4056 50.3899 33.4942 47.7624C34.5828 45.135 36.1782 42.7477 38.1894 40.7369C40.2006 38.726 42.5881 37.131 45.2157 36.0428C47.8433 34.9547 50.6595 34.3948 53.5036 34.395C59.2468 34.3955 64.7547 36.6774 68.8154 40.7389C72.8762 44.8003 75.1573 50.3085 75.1568 56.0518C75.1563 61.795 72.8744 67.3029 68.8129 71.3637C64.7515 75.4244 59.2433 77.7055 53.5 77.705V77.7086Z" fill="black"/><path fill-rule="evenodd" clip-rule="evenodd" d="M53 102.467C80.3197 102.467 102.467 80.3197 102.467 53C102.467 25.6803 80.3197 3.53333 53 3.53333C25.6803 3.53333 3.53333 25.6803 3.53333 53C3.53333 80.3197 25.6803 102.467 53 102.467ZM53 106C82.2711 106 106 82.2711 106 53C106 23.7289 82.2711 0 53 0C23.7289 0 0 23.7289 0 53C0 82.2711 23.7289 106 53 106Z" fill="black"/></svg>