<svg width="106" height="106" fill="none" xmlns="http://www.w3.org/2000/svg"><path fill-rule="evenodd" clip-rule="evenodd" d="M53 102.467C80.3197 102.467 102.467 80.3197 102.467 53C102.467 25.6803 80.3197 3.53333 53 3.53333C25.6803 3.53333 3.53333 25.6803 3.53333 53C3.53333 80.3197 25.6803 102.467 53 102.467ZM53 106C82.2711 106 106 82.2711 106 53C106 23.7289 82.2711 0 53 0C23.7289 0 0 23.7289 0 53C0 82.2711 23.7289 106 53 106Z" fill="black"/><path d="M82.4279 45.4571L70.1858 28.0599L76.0152 24L88.2537 41.3972L82.4279 45.4571ZM75.7271 54.4477L69.6096 45.7438L40.4734 66.047L46.5909 74.7438L40.7651 78.8073L24.4471 55.6087L30.2729 51.5488L36.3904 60.2491L65.5266 39.9459L59.4091 31.2456L65.2349 27.1856L81.5529 50.3807L75.7271 54.4442V54.4477ZM84.1742 35.5958L90 31.5358L85.9205 25.7379L80.0947 29.7979L84.1742 35.5958ZM35.8142 77.9401L23.5721 60.5429L17.7463 64.6028L29.9848 82L35.8142 77.9401V77.9401ZM25.9053 76.2021L20.0795 80.262L16 74.4642L21.8258 70.4042L25.9053 76.2021Z" fill="black"/></svg>