<svg width="35" height="36" fill="none" xmlns="http://www.w3.org/2000/svg"><path d="M17.7845 2.30322C15.0668 2.30293 12.3966 3.02752 10.0409 4.40456C7.68525 5.7816 5.72661 7.76283 4.36084 10.1502C2.99507 12.5375 2.27003 15.2473 2.25821 18.0086C2.24639 20.77 2.9482 23.4861 4.29348 25.8854L2.89624 30.87C2.80668 31.1937 2.80358 31.5357 2.88726 31.861C2.97094 32.1863 3.13838 32.4831 3.37236 32.7208C3.60634 32.9585 3.89842 33.1287 4.21857 33.2137C4.53871 33.2987 4.87537 33.2956 5.19392 33.2046L10.0998 31.7849C12.1656 32.9801 14.474 33.6773 16.847 33.8227C19.2199 33.9681 21.5941 33.5579 23.7863 32.6236C25.9786 31.6894 27.9304 30.2561 29.4913 28.4342C31.0521 26.6124 32.1804 24.4507 32.789 22.1157C33.3977 19.7808 33.4704 17.335 33.0017 14.967C32.5329 12.599 31.5352 10.372 30.0855 8.4577C28.6357 6.5434 26.7727 4.99295 24.64 3.92589C22.5072 2.85883 20.1618 2.30368 17.7845 2.30322ZM17.7845 32.5894C15.2158 32.5954 12.6937 31.8921 10.4879 30.5545C10.3916 30.5047 10.2854 30.4777 10.1774 30.4756H10.0066L4.85237 31.9742C4.74705 32.0029 4.63615 32.0029 4.53081 31.9743C4.42548 31.9456 4.32943 31.8893 4.25232 31.8109C4.17522 31.7326 4.11977 31.635 4.09157 31.528C4.06336 31.4209 4.06339 31.3083 4.09165 31.2013L5.56651 25.9643C5.61017 25.7993 5.58785 25.6236 5.50441 25.4753C3.89789 22.7206 3.23312 19.5034 3.61366 16.3249C3.9942 13.1463 5.39868 10.1849 7.60832 7.90189C9.81796 5.61888 12.7087 4.14249 15.8302 3.70269C18.9517 3.26289 22.1288 3.88438 24.8664 5.47036C27.6041 7.05633 29.7486 9.51773 30.9661 12.4711C32.1835 15.4245 32.4053 18.7041 31.5971 21.799C30.7889 24.8939 28.996 27.6303 26.4977 29.582C23.9994 31.5337 20.9359 32.591 17.7845 32.5894ZM25.6246 20.9955L22.4575 19.1657C22.1687 18.9976 21.8412 18.9105 21.5084 18.9133C21.1756 18.916 20.8495 19.0086 20.5635 19.1814L18.4211 20.4907C17.1305 19.8106 16.0786 18.7418 15.4092 17.4305L16.6978 15.2537C16.8679 14.9631 16.959 14.6318 16.9618 14.2936C16.9645 13.9555 16.8788 13.6227 16.7133 13.3293L14.9125 10.1114C14.7629 9.8482 14.548 9.62955 14.2891 9.4773C14.0303 9.32504 13.7367 9.24452 13.4376 9.2438C12.1227 9.24379 10.8614 9.77343 9.93021 10.7167C8.99898 11.6599 8.47376 12.9397 8.46965 14.2757C8.46761 16.0171 8.80342 17.7418 9.45787 19.3512C10.1123 20.9606 11.0726 22.4231 12.2837 23.6552C13.4949 24.8873 14.9332 25.8647 16.5164 26.5316C18.0996 27.1984 19.7966 27.5417 21.5105 27.5417H21.526C22.8409 27.5375 24.1005 27.0039 25.0289 26.0577C25.9572 25.1115 26.4785 23.83 26.4784 22.494C26.4777 22.1901 26.3985 21.8917 26.2486 21.6288C26.0988 21.3658 25.8836 21.1474 25.6246 20.9955ZM21.526 26.2798H21.5105C18.3798 26.2756 15.3788 25.009 13.1665 22.7583C10.9542 20.5075 9.71164 17.4567 9.71164 14.2757C9.71575 13.2744 10.1101 12.3155 10.8084 11.609C11.5067 10.9024 12.4521 10.5057 13.4376 10.5057C13.5171 10.5068 13.5949 10.5293 13.663 10.5709C13.7312 10.6124 13.7873 10.6716 13.8257 10.7423L15.6421 13.9602C15.6951 14.0595 15.7229 14.1707 15.7229 14.2836C15.7229 14.3965 15.6951 14.5077 15.6421 14.607L14.1828 17.0677C14.129 17.1542 14.0979 17.2533 14.0925 17.3554C14.0871 17.4576 14.1075 17.5595 14.1517 17.6514C14.9602 19.4818 16.4022 20.9469 18.2037 21.7684C18.2942 21.8134 18.3944 21.8341 18.495 21.8286C18.5955 21.823 18.693 21.7915 18.7781 21.7368L21.2 20.2541C21.2977 20.2002 21.4071 20.172 21.5183 20.172C21.6294 20.172 21.7388 20.2002 21.8365 20.2541L25.0036 22.0996C25.0732 22.1386 25.1314 22.1956 25.1723 22.2649C25.2132 22.3342 25.2354 22.4132 25.2365 22.494C25.2365 23.4953 24.846 24.4558 24.1506 25.1654C23.4552 25.8749 22.5115 26.2756 21.526 26.2798Z" fill="#818181"/></svg>